<svg width="340" height="94" viewBox="0 0 340 94" fill="none" xmlns="http://www.w3.org/2000/svg">
<g clip-path="url(#clip0_1_10)">
<path d="M59 5.875C57.5065 5.875 56.0315 6.13203 54.6303 6.62773L2.91309 25.2258C1.16153 25.8684 -3.07025e-05 27.5207 -3.07025e-05 29.375C-3.07025e-05 31.2293 1.16153 32.8816 2.91309 33.5242L13.5884 37.3613C10.5647 42.098 8.84997 47.6977 8.84997 53.591V58.75C8.84997 63.9641 6.85872 69.3434 4.73841 73.5844C3.53997 75.9711 2.17559 78.3211 0.589969 80.4875C-3.06963e-05 81.277 -0.165968 82.3051 0.165907 83.2414C0.497782 84.1777 1.27216 84.8754 2.23091 85.1141L14.0309 88.0516C14.8053 88.2535 15.635 88.1066 16.3172 87.6844C16.9993 87.2621 17.4787 86.5645 17.6262 85.775C19.2118 77.9172 18.419 70.8672 17.239 65.8184C16.649 63.2113 15.8562 60.5492 14.75 58.1074V53.591C14.75 48.0465 16.6306 42.8141 19.894 38.6281C22.2725 35.7824 25.3515 33.4875 28.9653 32.0738L57.9122 20.7461C59.424 20.1586 61.1387 20.893 61.7287 22.3984C62.3187 23.9039 61.5812 25.6113 60.0693 26.1988L31.1225 37.5266C28.8362 38.4262 26.8265 39.8031 25.1856 41.4922L54.6118 52.0672C56.0131 52.5629 57.4881 52.8199 58.9815 52.8199C60.475 52.8199 61.95 52.5629 63.3512 52.0672L115.087 33.5242C116.838 32.9 118 31.2293 118 29.375C118 27.5207 116.838 25.8684 115.087 25.2258L63.3697 6.62773C61.9684 6.13203 60.4934 5.875 59 5.875ZM23.6 74.9062C23.6 81.3871 39.4562 88.125 59 88.125C78.5437 88.125 94.4 81.3871 94.4 74.9062L91.579 48.2117L65.3609 57.6484C63.3143 58.3828 61.1572 58.75 59 58.75C56.8428 58.75 54.6672 58.3828 52.639 57.6484L26.4209 48.2117L23.6 74.9062Z" fill="#000"/>
</g>
<path d="M148.54 56.26C148.54 54.86 148.16 53.64 147.4 52.6C146.64 51.56 145.66 50.72 144.46 50.08C143.26 49.4 141.92 48.76 140.44 48.16C139 47.56 137.54 46.92 136.06 46.24C134.62 45.52 133.3 44.72 132.1 43.84C130.9 42.96 129.92 41.8 129.16 40.36C128.4 38.92 128.02 37.26 128.02 35.38C128.02 32.3 129.16 29.7 131.44 27.58C133.76 25.46 136.84 24.4 140.68 24.4C143.04 24.4 145.26 24.8 147.34 25.6C149.42 26.4 151.06 27.46 152.26 28.78L149.5 32.62C147.22 30.34 144.38 29.2 140.98 29.2C138.66 29.2 136.82 29.76 135.46 30.88C134.1 32 133.42 33.5 133.42 35.38C133.42 36.78 133.8 38 134.56 39.04C135.32 40.08 136.3 40.92 137.5 41.56C138.7 42.2 140.02 42.82 141.46 43.42C142.94 43.98 144.4 44.6 145.84 45.28C147.32 45.96 148.66 46.74 149.86 47.62C151.06 48.46 152.04 49.62 152.8 51.1C153.56 52.58 153.94 54.28 153.94 56.2C153.94 59.64 152.62 62.4 149.98 64.48C147.42 66.56 144.18 67.6 140.26 67.6C137.5 67.6 134.86 67.04 132.34 65.92C129.82 64.8 128.04 63.26 127 61.3L129.94 57.82C131.1 59.34 132.64 60.56 134.56 61.48C136.48 62.36 138.4 62.8 140.32 62.8C142.68 62.8 144.64 62.22 146.2 61.06C147.76 59.86 148.54 58.26 148.54 56.26ZM201.33 49.3V67H196.53V50.62C196.53 46.22 194.59 44.02 190.71 44.02C189.15 44.02 187.73 44.38 186.45 45.1C185.21 45.78 184.27 46.72 183.63 47.92C183.67 48.12 183.69 48.76 183.69 49.84V67H178.89V49.6C178.89 47.88 178.37 46.52 177.33 45.52C176.33 44.52 174.93 44.02 173.13 44.02C170.13 44.02 167.77 45.24 166.05 47.68V67H161.25V40H166.05V43.42C167.05 42.26 168.35 41.32 169.95 40.6C171.59 39.88 173.27 39.52 174.99 39.52C177.03 39.52 178.77 39.94 180.21 40.78C181.65 41.62 182.63 42.76 183.15 44.2C184.15 42.76 185.49 41.62 187.17 40.78C188.85 39.94 190.67 39.52 192.63 39.52C198.43 39.52 201.33 42.78 201.33 49.3ZM210.854 45.7L209.594 41.86C212.274 40.22 215.274 39.4 218.594 39.4C222.234 39.4 224.874 40.3 226.514 42.1C228.154 43.9 228.974 46.68 228.974 50.44V67H224.414V63.52C222.294 66.12 219.414 67.42 215.774 67.42C213.294 67.42 211.294 66.68 209.774 65.2C208.254 63.68 207.494 61.64 207.494 59.08C207.494 56.44 208.434 54.36 210.314 52.84C212.194 51.28 214.654 50.5 217.694 50.5C220.534 50.5 222.774 51.08 224.414 52.24C224.414 49.2 223.994 47.02 223.154 45.7C222.314 44.38 220.694 43.72 218.294 43.72C215.854 43.72 213.374 44.38 210.854 45.7ZM217.454 63.1C220.134 63.1 222.454 61.94 224.414 59.62V56.2C222.734 55 220.714 54.4 218.354 54.4C216.714 54.4 215.334 54.8 214.214 55.6C213.134 56.36 212.594 57.44 212.594 58.84C212.594 60.16 213.014 61.2 213.854 61.96C214.734 62.72 215.934 63.1 217.454 63.1ZM241.811 67H237.011V40H241.811V43.18C243.411 40.74 245.671 39.52 248.591 39.52C250.471 39.52 251.871 39.86 252.791 40.54L251.111 45.04C249.951 44.36 248.731 44.02 247.451 44.02C245.011 44.02 243.131 45.3 241.811 47.86V67ZM256.802 56.74V32.5H261.602V40H271.502V44.5H261.602V56.26C261.602 60.74 263.202 62.98 266.402 62.98C267.962 62.98 269.382 62.48 270.662 61.48L272.162 65.2C270.282 66.72 267.982 67.48 265.262 67.48C262.342 67.48 260.202 66.6 258.842 64.84C257.482 63.08 256.802 60.38 256.802 56.74ZM284.674 67H279.874V40H284.674V67ZM279.274 29.86C279.274 29.02 279.574 28.34 280.174 27.82C280.774 27.26 281.514 26.98 282.394 26.98C283.234 26.98 283.934 27.26 284.494 27.82C285.054 28.34 285.334 29.02 285.334 29.86C285.334 30.78 285.054 31.54 284.494 32.14C283.934 32.7 283.234 32.98 282.394 32.98C281.514 32.98 280.774 32.7 280.174 32.14C279.574 31.54 279.274 30.78 279.274 29.86ZM300.009 67H295.209V35.62C295.209 31.94 296.029 29.16 297.669 27.28C299.309 25.36 301.649 24.4 304.689 24.4C307.849 24.4 310.249 25.2 311.889 26.8L310.209 30.46C308.929 29.42 307.349 28.9 305.469 28.9C301.829 28.9 300.009 31.32 300.009 36.16V40H309.009V44.5H300.009V67ZM333.494 40H338.954L328.154 67C326.194 71.76 324.494 74.92 323.054 76.48C321.534 78.16 319.794 79 317.834 79C316.074 79 314.374 78.44 312.734 77.32L314.294 73.66C315.574 74.26 316.574 74.56 317.294 74.56C318.414 74.56 319.414 74.08 320.294 73.12C321.214 72.16 322.134 70.6 323.054 68.44L323.654 67L310.694 40H316.454L324.374 57.16C324.534 57.44 325.074 58.8 325.994 61.24C326.354 59.92 326.774 58.54 327.254 57.1L333.494 40Z" fill="#000"/>
<defs>
<clipPath id="clip0_1_10">
<rect width="118" height="94" fill="white"/>
</clipPath>
</defs>
</svg>
